<svg width="566" height="452" xmlns="http://www.w3.org/2000/svg" xmlns:xlink="http://www.w3.org/1999/xlink" xml:space="preserve" overflow="hidden"><defs><clipPath id="clip0"><rect x="357" y="43" width="566" height="452"/></clipPath></defs><g clip-path="url(#clip0)" transform="translate(-357 -43)"><path d="M376.395 673.827C375.338 673.525 374.432 671.411 374.432 669.298L374.432 665.523 377.15 668.845C378.66 670.656 382.585 672.77 385.907 673.374L391.795 674.582 385.001 674.582C381.226 674.582 377.301 674.28 376.395 673.827Z" fill="#273741" transform="matrix(1.00048 0 0 1 257.715 -111.077)"/><path d="M397.079 668.694C399.948 663.409 397.683 658.729 389.832 654.351 378.509 647.858 375.942 644.839 375.942 638.498 375.942 631.401 378.66 629.288 379.264 635.931 379.717 640.309 381.226 641.819 390.738 648.16 401.156 655.105 401.609 655.558 401.609 661.296 401.609 664.617 400.552 668.09 399.193 669.449 396.022 672.77 395.117 672.468 397.079 668.694Z" fill="#273741" transform="matrix(1.00048 0 0 1 257.715 -111.077)"/><path d="M396.324 631.1C393.607 628.231 393.758 628.08 396.777 628.08 399.042 628.08 400.099 628.986 400.099 631.1 400.099 632.76 399.797 634.119 399.646 634.119 399.344 634.119 397.834 632.76 396.324 631.1Z" fill="#273741" transform="matrix(1.00048 0 0 1 257.715 -111.077)"/><path d="M384.246 595.619C383.642 592.297 380.924 578.105 378.056 564.064 375.187 550.023 371.564 530.244 369.752 520.28 368.091 510.164 365.675 498.085 364.467 493.103 363.26 488.272 362.505 484.044 362.807 483.591 363.26 483.289 367.94 483.893 373.526 484.799L383.491 486.611 383.642 530.546C383.642 554.703 384.095 577.199 384.85 580.521L385.907 586.56 386.964 580.521C387.417 577.199 388.323 554.703 388.926 530.546L389.983 486.46 396.173 485.705C399.646 485.101 404.628 484.346 407.497 483.742 412.026 482.836 412.479 482.987 411.574 485.705 410.97 487.366 409.611 493.103 408.554 498.387 402.213 526.772 398.287 545.342 393.154 569.197 386.36 601.809 385.756 603.621 384.246 595.619Z" fill="#273741" transform="matrix(1.00048 0 0 1 257.715 -111.077)"/><path d="M354.805 539.756C314.493 531.603 270.708 498.689 252.289 462.454 249.118 456.264 249.118 455.962 251.987 455.962 253.799 455.962 256.818 459.132 260.744 465.474 275.54 488.725 295.771 507.144 320.079 519.374 333.818 526.319 352.087 532.962 363.562 535.227 367.034 535.982 368.393 537.039 368.393 539.152 368.393 542.474 368.091 542.474 354.805 539.756Z" fill="#273741" transform="matrix(1.00048 0 0 1 257.715 -111.077)"/><path d="M403.723 540.36C402.515 538.397 406.893 534.472 410.517 534.472 420.934 534.472 455.358 520.582 470.456 510.164 485.554 499.897 504.578 479.364 513.938 463.209 516.656 458.529 519.223 455.962 521.035 455.962 522.544 455.962 523.903 456.415 523.903 457.17 523.903 458.981 510.315 480.27 504.88 487.215 502.011 490.687 499.746 494.16 499.746 495.066 499.746 495.972 499.142 496.727 498.387 496.727 497.482 496.727 492.952 500.199 488.121 504.427 483.289 508.654 475.74 514.542 471.362 517.411 462.605 523.299 440.562 534.472 437.693 534.472 436.636 534.472 431.352 535.831 425.917 537.34 411.272 541.568 405.081 542.474 403.723 540.36Z" fill="#273741" transform="matrix(1.00048 0 0 1 257.715 -111.077)"/><path d="M354.201 524.507C350.275 523.148 347.256 521.94 347.709 521.487 348.464 520.582 365.373 525.262 365.373 526.319 365.373 527.376 361.901 526.772 354.201 524.507Z" fill="#273741" transform="matrix(1.00048 0 0 1 257.715 -111.077)"/><path d="M412.177 524.96C413.385 523.752 441.317 514.693 441.921 515.448 442.827 516.354 423.803 523.601 417.311 524.809 414.14 525.262 411.725 525.413 412.177 524.96Z" fill="#273741" transform="matrix(1.00048 0 0 1 257.715 -111.077)"/><path d="M334.422 517.109C332.007 516.052 330.95 514.995 332.158 514.995 333.365 514.995 336.083 515.901 338.197 517.109 343.028 519.827 340.311 519.827 334.422 517.109Z" fill="#273741" transform="matrix(1.00048 0 0 1 257.715 -111.077)"/><path d="M363.864 477.25C349.973 473.325 342.273 470.305 334.422 465.776L327.628 461.699 323.401 464.87C320.985 466.531 317.06 468.644 314.795 469.55 310.265 471.211 309.812 471.966 323.099 457.019 323.703 456.264 330.648 459.283 338.65 463.511 354.805 472.117 372.319 477.099 386.662 477.099 403.119 477.099 428.634 468.795 442.676 458.83 444.789 457.321 447.205 455.962 447.96 455.962 448.715 455.962 452.64 459.434 456.717 463.511 460.793 467.738 463.511 471.06 462.907 471.06 462.152 471.06 458.076 469.097 453.697 466.531L445.846 462.001 432.409 468.644C425.011 472.268 414.442 476.344 409.007 477.703 396.022 480.874 376.244 480.723 363.864 477.25Z" fill="#273741" transform="matrix(1.00048 0 0 1 257.715 -111.077)"/><path d="M310.869 463.058C314.342 453.999 317.362 449.621 318.871 451.13 319.928 452.187 319.022 454.452 316.154 458.529 309.963 467.134 309.209 467.738 310.869 463.058Z" fill="#273741" transform="matrix(1.00048 0 0 1 257.715 -111.077)"/><path d="M459.132 459.434C453.848 452.942 453.697 452.489 456.566 450.074 458.227 448.715 459.283 449.923 461.85 456.113 463.662 460.491 464.719 464.266 464.417 464.568 464.115 464.87 461.699 462.605 459.132 459.434Z" fill="#273741" transform="matrix(1.00048 0 0 1 257.715 -111.077)"/><path d="M563.158 454.452C563.158 453.697 564.668 452.942 566.631 452.942 569.348 452.942 569.499 453.244 567.688 454.452 564.819 456.415 563.158 456.415 563.158 454.452Z" fill="#273741" transform="matrix(1.00048 0 0 1 257.715 -111.077)"/><path d="M334.724 436.183C331.705 435.73 327.326 433.617 325.213 431.654 317.663 424.709 317.06 420.632 317.06 382.132 317.06 350.275 317.362 345.897 320.079 340.16 327.477 323.552 351.483 323.25 359.636 339.707 361.448 343.179 362.354 348.464 362.354 355.258L362.354 365.373 355.56 365.373 348.766 365.373 348.766 356.617C348.766 342.877 342.424 336.989 335.026 344.387 332.158 347.256 332.007 348.766 332.46 383.642 332.913 417.613 333.064 420.179 335.781 422.142 343.481 427.728 348.766 422.897 348.766 410.668 348.766 401.005 349.52 400.25 358.277 401.307 363.864 401.911 363.864 401.911 363.864 409.007 363.864 428.936 352.842 439.354 334.724 436.183Z" fill="#273741" transform="matrix(1.00048 0 0 1 257.715 -111.077)"/><path d="M109.008 433.315C100.402 428.03 99.6473 423.954 99.6473 383.944 99.6473 351.936 100.1 347.256 102.516 341.669 106.139 333.818 112.028 330.648 122.747 330.648 137.091 330.648 143.432 338.499 143.432 356.315L143.432 366.883 135.883 366.883 128.334 366.883 128.334 356.617C128.334 350.577 127.579 345.595 126.522 344.538 123.955 341.971 120.181 342.273 117.161 345.444 115.047 348.011 114.745 352.389 115.047 385.001 115.5 420.783 115.651 421.689 118.822 423.803 121.69 425.766 122.445 425.615 125.163 422.897 127.881 420.179 128.334 417.915 128.334 408.403 128.334 397.532 128.183 396.928 124.408 395.57 121.389 394.362 120.634 393.154 121.087 389.832 121.539 385.907 121.841 385.756 132.561 385.303L143.432 384.85 143.432 409.913 143.432 434.825 139.808 434.825C137.845 434.825 135.732 433.768 135.279 432.409 134.524 430.295 133.769 430.446 129.24 433.164 122.898 437.089 115.349 437.24 109.008 433.315Z" fill="#273741" transform="matrix(1.00048 0 0 1 257.715 -111.077)"/><path d="M384.246 434.221C373.979 429.691 373.677 428.634 373.224 394.966 372.771 361.599 373.828 354.956 380.622 349.822 385.152 346.652 397.834 345.897 402.968 348.766 409.762 352.389 410.668 357.22 410.668 391.04 410.668 426.823 409.913 430.446 400.854 434.221 394.513 436.787 390.134 436.787 384.246 434.221ZM396.173 423.35C398.287 421.387 398.589 416.254 398.589 391.04 398.589 365.826 398.287 360.693 396.173 358.73 393.456 355.862 393.154 355.862 389.379 357.824 386.662 359.334 386.511 361.297 386.511 390.738 386.511 422.142 387.115 425.766 391.946 425.766 393.003 425.766 394.966 424.709 396.173 423.35Z" fill="#273741" transform="matrix(1.00048 0 0 1 257.715 -111.077)"/><path d="M591.996 434.372C585.05 431.956 581.276 426.37 580.823 418.217L580.521 411.423 587.013 410.97 593.354 410.517 593.354 416.405C593.354 423.35 596.223 426.521 601.507 425.162 605.584 424.105 607.849 417.613 606.037 411.875 605.584 409.913 601.205 402.515 596.374 395.419 591.543 388.323 586.56 380.471 585.201 377.754 580.37 368.544 583.088 352.54 590.184 348.766 594.109 346.803 607.849 346.803 611.774 348.917 615.247 350.728 619.021 358.881 619.021 364.618 619.021 367.94 618.417 368.393 613.284 368.393 607.849 368.393 607.396 368.091 606.037 362.807 603.772 353.597 594.864 354.654 594.864 364.166 594.864 370.356 597.884 376.697 606.641 388.473 616.605 401.76 619.776 410.064 618.417 419.274 617.36 427.276 614.341 431.352 607.396 434.221 601.507 436.787 598.79 436.787 591.996 434.372Z" fill="#273741" transform="matrix(1.00048 0 0 1 257.715 -111.077)"/><path d="M640.158 435.277C630.496 432.258 626.57 426.823 626.57 416.707L626.57 410.668 632.609 410.668C638.498 410.668 638.649 410.819 638.649 415.801 638.649 421.387 641.819 425.766 646.047 425.766 650.123 425.766 652.237 422.595 652.237 416.405 652.237 411.725 650.425 407.799 643.329 397.381 631.703 380.019 628.08 372.62 628.08 366.279 628.08 353.597 634.119 347.256 645.896 347.256 650.274 347.256 655.256 348.011 657.068 348.917 660.541 350.728 664.315 358.881 664.315 364.618 664.315 368.091 663.711 368.393 658.276 368.393 653.143 368.393 652.237 367.94 652.237 365.222 652.237 360.542 649.519 356.315 646.5 356.315 642.272 356.315 640.158 359.485 640.158 365.524 640.158 369.903 641.97 373.677 648.764 382.887 663.862 404.024 667.184 415.348 661.749 426.823 658.276 434.221 648.462 438.146 640.158 435.277Z" fill="#273741" transform="matrix(1.00048 0 0 1 257.715 -111.077)"/><path d="M157.02 391.04 157.02 347.256 168.042 347.256C187.367 347.256 194.765 354.352 194.765 373.073 194.765 381.226 194.01 384.095 190.991 388.624 186.763 394.966 186.763 395.419 191.897 417.462 195.973 434.523 195.822 434.825 188.877 434.825L182.838 434.825 181.177 426.219C180.271 421.387 179.214 415.499 178.761 412.932 176.798 402.515 174.836 397.079 173.024 397.079 169.853 397.079 169.249 402.062 170.155 419.123L171.061 434.825 163.965 434.825 157.02 434.825 157.02 391.04ZM179.365 384.397C180.422 383.34 181.63 379.264 182.083 375.036 182.989 365.826 180.422 360.24 174.836 359.636 170.91 359.183 170.91 359.183 170.306 371.715 170.004 378.66 170.004 385.152 170.306 386.209 171.061 388.323 176.195 387.266 179.365 384.397Z" fill="#273741" transform="matrix(1.00048 0 0 1 257.715 -111.077)"/><path d="M202.314 433.013C202.314 431.956 204.277 419.576 206.844 405.383 209.259 391.342 212.581 372.62 214.091 363.864L216.808 348.011 224.508 347.558 232.208 347.105 235.379 364.166C237.04 373.526 239.153 386.36 240.059 392.55 240.965 398.74 242.626 409.158 243.834 415.801 247.306 434.221 247.155 435.127 240.512 434.523 235.077 434.07 234.926 433.919 233.265 425.766L231.755 417.462 224.659 417.009C216.959 416.556 216.959 416.405 215.148 428.483 214.091 434.674 213.94 434.825 208.202 434.825 204.579 434.825 202.314 434.07 202.314 433.013ZM229.189 401.156C229.642 397.079 225.565 370.054 224.357 368.846 223.452 367.789 220.734 381.528 219.677 393.607 218.62 403.27 218.771 404.477 221.338 405.081 226.622 406.44 228.736 405.383 229.189 401.156Z" fill="#273741" transform="matrix(1.00048 0 0 1 257.715 -111.077)"/><path d="M256.516 433.315C256.365 432.56 256.365 430.144 256.365 428.03 256.365 425.917 256.365 406.893 256.516 385.756L256.667 347.256 267.387 347.256C280.22 347.256 287.467 350.275 291.091 356.918 293.205 360.693 293.809 366.732 294.111 390.285 294.563 422.897 293.507 427.427 283.844 432.107 277.956 435.127 256.818 436.032 256.516 433.315ZM278.71 421.085C281.277 418.368 281.579 415.046 282.032 394.966 282.636 370.356 281.277 361.901 276.144 359.183 269.048 355.409 268.746 357.069 268.746 391.795L268.746 424.256 272.218 424.256C274.181 424.256 277.05 422.897 278.71 421.085Z" fill="#273741" transform="matrix(1.00048 0 0 1 257.715 -111.077)"/><path d="M423.803 433.768C422.746 431.654 422.595 375.338 423.652 361.297L424.558 347.256 431.805 347.256 439.052 347.256 442.072 361.297C443.883 368.846 445.695 377.905 446.299 381.226 446.903 384.548 447.809 388.323 448.564 389.53 450.225 392.55 450.527 391.493 455.66 367.638L459.887 348.011 467.738 347.558 475.589 347.105 475.589 390.889 475.589 434.825 470.305 434.825 465.021 434.825 464.719 413.385C464.568 401.458 464.719 389.228 464.87 386.209 465.021 383.038 464.568 379.415 463.813 378.056 462.303 375.338 461.397 379.113 455.207 413.536 453.093 424.709 451.13 434.07 450.829 434.372 449.319 436.032 446.903 432.862 446.299 428.332 436.334 366.732 435.73 365.373 435.127 404.326L434.825 434.825 429.54 434.825C426.823 434.825 424.105 434.372 423.803 433.768Z" fill="#273741" transform="matrix(1.00048 0 0 1 257.715 -111.077)"/><path d="M489.178 391.04 489.178 347.256 499.444 347.256C512.731 347.256 519.072 350.426 523.601 359.334 532.207 376.395 523.752 396.928 507.144 399.495L501.256 400.552 501.256 417.613 501.256 434.825 495.217 434.825 489.178 434.825 489.178 391.04ZM509.711 386.813C514.542 383.642 516.203 373.677 513.184 365.826 511.372 360.995 509.258 359.334 504.729 359.334 501.407 359.334 501.256 359.787 501.256 372.62 501.256 380.019 501.709 386.511 502.313 386.964 503.521 388.323 507.597 388.323 509.711 386.813Z" fill="#273741" transform="matrix(1.00048 0 0 1 257.715 -111.077)"/><path d="M531.452 431.654C531.452 429.842 532.509 421.84 533.868 413.838 538.548 384.548 542.172 362.958 543.682 355.107L545.342 347.105 553.042 347.558 560.742 348.011 567.839 391.04C571.915 414.744 575.086 434.221 575.237 434.523 575.237 434.825 572.368 434.825 568.895 434.523 562.705 434.07 562.403 433.919 561.95 428.785 561.044 417.16 560.742 416.707 552.741 416.707L545.342 416.707 544.286 423.199C542.625 434.372 542.172 434.825 536.586 434.825 532.358 434.825 531.452 434.221 531.452 431.654ZM557.723 396.777C556.213 381.075 553.797 369.45 552.439 371.715 550.627 374.885 546.399 401.76 547.456 403.27 547.909 404.024 550.476 404.628 553.344 404.628L558.478 404.628 557.723 396.777Z" fill="#273741" transform="matrix(1.00048 0 0 1 257.715 -111.077)"/><path d="M244.589 324.458C245.344 321.891 249.873 312.53 254.705 303.773 271.463 272.822 301.66 247.155 335.932 234.775 340.16 233.265 344.236 231.453 344.991 231.001 345.897 230.397 349.218 229.491 352.54 228.887 355.862 228.283 360.391 227.528 362.807 227.075 366.128 226.32 366.883 226.773 366.883 229.189 366.883 231.604 365.524 232.51 360.542 233.265 350.426 235.077 330.95 242.324 318.72 248.967 290.185 264.669 270.708 284.599 256.969 312.228 251.081 324.005 247.759 329.138 245.948 329.138 243.683 329.138 243.532 328.383 244.589 324.458Z" fill="#273741" transform="matrix(1.00048 0 0 1 257.715 -111.077)"/><path d="M521.336 327.326C520.582 326.269 518.619 322.344 517.109 318.569 510.013 301.811 493.405 278.861 479.062 265.877 463.209 251.534 440.864 239.908 417.764 234.171 409.913 232.208 406.742 230.548 406.289 228.736 405.836 226.32 406.591 226.169 412.328 227.075 428.634 229.642 452.64 239.757 469.55 251.081 492.499 266.632 512.127 290.789 523.148 317.211 525.262 322.042 526.923 326.722 526.923 327.628 526.923 329.742 522.997 329.591 521.336 327.326Z" fill="#273741" transform="matrix(1.00048 0 0 1 257.715 -111.077)"/><path d="M563.158 325.967C562.252 324.307 559.837 318.569 557.874 313.285 555.911 308.152 552.892 301.509 551.231 298.791 547.154 292.148 547.003 287.769 551.08 292.903 553.948 296.677 558.78 305.887 565.574 321.287 568.443 327.477 568.745 329.138 566.933 329.138 565.725 329.138 564.064 327.779 563.158 325.967Z" fill="#273741" transform="matrix(1.00048 0 0 1 257.715 -111.077)"/><path d="M457.019 322.042C454.905 319.928 456.113 316.607 462.152 308.756 465.625 304.226 468.644 300.452 468.946 300.452 469.248 300.452 468.191 303.622 466.681 307.699 460.642 322.797 459.434 324.609 457.019 322.042Z" fill="#273741" transform="matrix(1.00048 0 0 1 257.715 -111.077)"/><path d="M308.907 311.624C304.679 301.207 304.528 297.885 308.303 303.773 309.662 305.736 312.379 309.209 314.644 311.473 317.814 314.946 318.267 316.305 317.06 318.72 314.493 323.401 313.134 322.193 308.907 311.624Z" fill="#273741" transform="matrix(1.00048 0 0 1 257.715 -111.077)"/><path d="M314.04 303.471C309.511 299.395 306.34 295.922 306.944 295.922 307.699 295.922 312.228 298.187 317.06 300.754L325.967 305.736 330.195 301.811C336.234 296.073 349.369 289.128 361.448 285.203 370.507 282.334 374.13 282.032 390.889 282.636 409.309 283.24 410.366 283.542 421.236 288.977 434.372 295.62 447.205 304.679 446.148 306.491 445.695 307.246 441.468 305.132 436.636 301.961 421.991 292.299 409.762 287.769 393.154 285.958 384.397 285.052 363.26 287.467 360.089 289.883 359.334 290.487 356.164 291.695 353.295 292.752 347.105 294.865 328.534 305.736 325.967 308.907 325.062 310.114 323.854 311.02 323.25 311.02 322.797 311.02 318.569 307.548 314.04 303.471Z" fill="#273741" transform="matrix(1.00048 0 0 1 257.715 -111.077)"/><path d="M450.829 309.963C448.564 307.699 450.376 305.283 456.717 301.961 460.491 299.999 463.813 298.791 464.266 299.093 464.568 299.546 462.001 302.414 458.378 305.434 454.754 308.454 451.432 310.416 450.829 309.963Z" fill="#273741" transform="matrix(1.00048 0 0 1 257.715 -111.077)"/><path d="M361.448 276.144C363.562 268.444 368.393 247.457 372.922 226.471 380.471 191.142 381.679 185.555 383.642 174.383 386.209 159.889 387.417 158.228 388.775 166.985 389.228 171.061 391.04 179.214 392.55 184.951 394.06 190.84 395.872 198.54 396.324 202.314 396.928 206.089 399.646 220.281 402.515 234.02 405.383 247.759 408.554 263.612 409.762 269.35L411.875 279.616 407.195 278.71C404.477 278.107 399.948 277.352 396.928 276.899L391.342 275.993 390.436 238.701C389.832 218.318 389.077 194.463 388.473 185.706 387.417 170.608 387.417 170.306 386.36 178.006 385.756 182.536 384.699 206.391 384.095 231.152L383.038 275.993 375.338 276.899C371.111 277.352 365.977 278.258 364.015 278.861 360.693 279.616 360.542 279.465 361.448 276.144Z" fill="#273741" transform="matrix(1.00048 0 0 1 257.715 -111.077)"/><path d="M296.677 273.879C297.583 273.124 300.15 270.859 302.716 268.746 307.095 265.122 307.095 265.122 304.226 268.444 302.565 270.407 299.848 272.671 298.187 273.577 296.526 274.483 295.922 274.483 296.677 273.879Z" fill="#273741" transform="matrix(1.00048 0 0 1 257.715 -111.077)"/><path d="M469.248 269.35C460.944 262.405 461.246 262.707 463.058 262.707 464.719 262.707 478.458 274.634 476.797 274.785 476.344 274.785 472.872 272.369 469.248 269.35Z" fill="#273741" transform="matrix(1.00048 0 0 1 257.715 -111.077)"/><path d="M435.277 249.873C432.56 248.665 430.295 247.306 430.295 246.854 430.295 246.099 440.864 250.024 442.223 251.383 443.581 252.742 440.109 251.987 435.277 249.873Z" fill="#273741" transform="matrix(1.00048 0 0 1 257.715 -111.077)"/><path d="M366.128 139.053C365.675 138.751 365.977 137.694 366.883 136.789 369.148 133.92 369.148 92.5512 366.883 89.8335 365.222 87.8708 365.675 87.5688 369.45 87.5688 373.073 87.5688 375.187 89.3806 382.736 99.1943 395.721 115.651 408.101 129.994 408.856 129.089 409.309 128.636 409.762 120.785 410.064 111.424 410.517 98.2885 410.064 93.6081 408.252 91.0414 406.138 87.5688 406.138 87.5688 412.177 87.5688L418.368 87.5688 415.348 91.4943C412.479 95.1179 412.177 97.5336 412.177 117.916 412.177 130.296 411.574 140.412 410.97 140.412 410.215 140.412 401.609 130.296 391.644 117.765 381.83 105.385 373.224 95.1179 372.62 95.1179 371.866 95.1179 371.413 102.516 371.413 111.575 371.413 120.634 370.96 129.089 370.507 130.447 369.903 131.806 371.262 134.222 373.828 136.638L378.056 140.563 372.469 140.11C369.299 139.959 366.43 139.506 366.128 139.053Z" fill="#273741" transform="matrix(1.00048 0 0 1 257.715 -111.077)"/></g></svg>