<svg xmlns="http://www.w3.org/2000/svg" xmlns:xlink="http://www.w3.org/1999/xlink" width="348.16" height="536" viewBox="0 0 261.12 402"><clipPath id="a"><path transform="scale(.24)" d="M0 0h1087.5v1674.69H0z" fill-rule="evenodd"/></clipPath><g clip-path="url(#a)"><path d="M0 0h261v401.926H0z" fill="#fff"/></g><clipPath id="b"><path transform="scale(.24)" d="M0 0h1087.5v1671.694H0z" fill-rule="evenodd"/></clipPath><g clip-path="url(#b)"><path stroke-miterlimit="10" fill="none" stroke="#000" d="M44.219 67.946v20.492h64.71v15.912" stroke-width=".71901"/><path d="m108.93 108.124-2.517-5.033 2.517 1.259 2.516-1.259-2.516 5.033z"/><path stroke-miterlimit="10" fill="none" stroke="#000" d="m108.93 108.124-2.517-5.033 2.517 1.259 2.516-1.259-2.516 5.033z" stroke-width=".71901"/><path d="M7.55 24.806h73.338a6.456 6.456 0 0 1 3.596 1.09 6.455 6.455 0 0 1 2.383 2.904 6.455 6.455 0 0 1 .493 2.477v30.198a6.456 6.456 0 0 1-1.091 3.595 6.456 6.456 0 0 1-2.904 2.384 6.456 6.456 0 0 1-2.477.492H7.55a6.456 6.456 0 0 1-3.596-1.09 6.456 6.456 0 0 1-2.383-2.904 6.456 6.456 0 0 1-.492-2.477V31.277a6.456 6.456 0 0 1 1.09-3.595 6.455 6.455 0 0 1 2.904-2.384 6.455 6.455 0 0 1 2.477-.492z" fill="#fff"/><path fill="none" stroke="#000" d="M7.55 24.806h73.338a6.456 6.456 0 0 1 3.596 1.09 6.455 6.455 0 0 1 2.383 2.904 6.455 6.455 0 0 1 .493 2.477v30.198a6.456 6.456 0 0 1-1.091 3.595 6.456 6.456 0 0 1-2.904 2.384 6.456 6.456 0 0 1-2.477.492H7.55a6.456 6.456 0 0 1-3.596-1.09 6.456 6.456 0 0 1-2.383-2.904 6.456 6.456 0 0 1-.492-2.477V31.277a6.456 6.456 0 0 1 1.09-3.595 6.455 6.455 0 0 1 2.904-2.384 6.455 6.455 0 0 1 2.477-.492z" stroke-width=".71901"/><symbol id="c"><path d="M.718 0H.561L.499.163H.212L.153 0H0l.279.716h.153L.718 0M.452.283.354.55.257.283h.195z"/></symbol><symbol id="d"><path d="M0 0v.716h.137V0H0z"/></symbol><symbol id="e"><path d="M0 .716h.128V.64A.191.191 0 0 0 .29.728C.35.728.4.704.443.657A.287.287 0 0 0 .506.459.296.296 0 0 0 .442.257.198.198 0 0 0 .21.203.264.264 0 0 0 .137.26V0H0v.716m.136-.25c0-.059.011-.102.034-.13A.106.106 0 0 1 .255.294a.1.1 0 0 1 .08.039C.354.358.365.4.365.458c0 .055-.01.095-.033.122a.101.101 0 0 1-.08.04.105.105 0 0 1-.084-.04C.147.554.136.516.136.465z"/></symbol><symbol id="f"><path d="M.137.716V.453a.202.202 0 0 0 .244.06.138.138 0 0 0 .057-.045.158.158 0 0 0 .027-.06.524.524 0 0 0 .007-.104V0H.335v.274a.406.406 0 0 1-.008.103A.066.066 0 0 1 .3.412.086.086 0 0 1 .25.425.114.114 0 0 1 .189.41a.097.097 0 0 1-.04-.05.302.302 0 0 1-.012-.1V0H0v.716h.137z"/></symbol><symbol id="g"><path d="M.139.372.014.395c.014.05.038.087.072.11A.264.264 0 0 0 .24.543.325.325 0 0 0 .375.52.133.133 0 0 0 .438.465.278.278 0 0 0 .457.342L.456.182c0-.045.002-.08.006-.1a.304.304 0 0 1 .025-.07H.35a.505.505 0 0 0-.018.056.247.247 0 0 0-.075-.05A.215.215 0 0 0 .172 0a.178.178 0 0 0-.126.043.145.145 0 0 0-.046.11c0 .03.007.056.021.078.014.024.034.041.059.053a.456.456 0 0 0 .109.032.748.748 0 0 1 .133.034v.014C.322.39.316.409.302.42.29.43.266.437.23.437A.097.097 0 0 1 .172.422a.099.099 0 0 1-.033-.05M.322.261A.858.858 0 0 0 .24.24.252.252 0 0 1 .164.216.057.057 0 0 1 .137.167c0-.019.007-.035.022-.05a.075.075 0 0 1 .054-.02c.025 0 .049.008.071.024a.086.086 0 0 1 .033.046.27.27 0 0 1 .005.066v.028z"/></symbol><symbol id="h"><path d="M0 .012v.716h.137V.47a.202.202 0 0 0 .307.003C.486.428.506.362.506.276A.299.299 0 0 0 .443.072a.197.197 0 0 0-.316.016V.012H0m.136.27A.22.22 0 0 1 .162.163.109.109 0 0 1 .256.108c.03 0 .056.013.077.039.022.026.033.067.033.123C.366.329.355.37.333.397a.102.102 0 0 1-.082.04.103.103 0 0 1-.082-.039C.147.373.136.334.136.282z"/></symbol><symbol id="i"><path d="M.34.177.477.154A.225.225 0 0 0 .394.039.245.245 0 0 0 .25 0c-.09 0-.156.03-.2.088A.297.297 0 0 0 0 .268c0 .085.022.152.067.2a.222.222 0 0 0 .17.074A.23.23 0 0 0 .42.465C.465.415.486.337.484.231H.141A.14.14 0 0 1 .174.136.104.104 0 0 1 .253.103c.021 0 .04.005.054.017.015.012.026.03.033.057m.008.138c0 .04-.011.07-.03.09a.094.094 0 0 1-.072.032.095.095 0 0 1-.074-.033.127.127 0 0 1-.029-.089h.205z"/></symbol><symbol id="j"><path d="M.294.53V.42H.201V.213C.2.17.2.145.203.138A.032.032 0 0 1 .215.12.04.04 0 0 1 .24.114c.012 0 .03.004.055.013L.306.021A.273.273 0 0 0 .197 0 .175.175 0 0 0 .13.012a.102.102 0 0 0-.044.032.132.132 0 0 0-.019.054.665.665 0 0 0-.004.097V.42H0v.11h.063v.102l.138.08V.53h.093z"/></symbol><symbol id="k"><path d="M0 0z"/></symbol><symbol id="l"><path d="M0 0v.716h.145V0H0z"/></symbol><symbol id="m"><path d="M.473 0H.335v.265a.406.406 0 0 1-.008.108.076.076 0 0 1-.077.052.11.11 0 0 1-.063-.02.1.1 0 0 1-.04-.051.458.458 0 0 1-.01-.12V0H0v.519h.127V.442A.208.208 0 0 0 .298.53C.328.53.356.525.381.514a.135.135 0 0 0 .084-.1.416.416 0 0 0 .008-.092V0z"/></symbol><symbol id="n"><path d="M.344.012v.077A.207.207 0 0 0 .078.023a.135.135 0 0 0-.06.064A.288.288 0 0 0 0 .202V.53h.137V.292C.137.219.14.174.145.158a.076.076 0 0 1 .027-.04.086.086 0 0 1 .051-.014c.024 0 .045.007.063.02A.1.1 0 0 1 .324.17c.007.02.01.066.01.14v.22h.138V.01H.344z"/></symbol><symbol id="o"><path d="M0 .729h.146L.27.361l.121.368h.142L.35.23.317.14A.357.357 0 0 0 .283.07.142.142 0 0 0 .245.032.158.158 0 0 0 .193.008a.364.364 0 0 0-.147 0L.032.116A.304.304 0 0 1 .091.109c.032 0 .056.01.071.029a.192.192 0 0 1 .035.071L0 .729z"/></symbol><use xlink:href="#c" transform="matrix(8.6281 0 0 -8.6281 7.437 44.579)"/><use xlink:href="#d" transform="matrix(8.6281 0 0 -8.6281 14.286 44.579)"/><use xlink:href="#e" transform="matrix(8.6281 0 0 -8.6281 16.65 46.28)"/><use xlink:href="#f" transform="matrix(8.6281 0 0 -8.6281 21.952 44.579)"/><use xlink:href="#g" transform="matrix(8.6281 0 0 -8.6281 26.916 44.68)"/><use xlink:href="#h" transform="matrix(8.6281 0 0 -8.6281 31.975 44.68)"/><use xlink:href="#i" transform="matrix(8.6281 0 0 -8.6281 36.952 44.68)"/><use xlink:href="#j" transform="matrix(8.6281 0 0 -8.6281 41.606 44.68)"/><use xlink:href="#k" transform="matrix(8.6281 0 0 -8.6281 44.348 44.579)"/><use xlink:href="#l" transform="matrix(8.6281 0 0 -8.6281 47.337 44.579)"/><use xlink:href="#m" transform="matrix(8.6281 0 0 -8.6281 49.756 44.579)"/><use xlink:href="#e" transform="matrix(8.6281 0 0 -8.6281 55.003 46.28)"/><use xlink:href="#n" transform="matrix(8.6281 0 0 -8.6281 60.283 44.68)"/><use xlink:href="#j" transform="matrix(8.6281 0 0 -8.6281 65.091 44.68)"/><use xlink:href="#k" transform="matrix(8.6281 0 0 -8.6281 67.834 44.579)"/><use xlink:href="#h" transform="matrix(8.6281 0 0 -8.6281 70.801 44.68)"/><use xlink:href="#o" transform="matrix(8.6281 0 0 -8.6281 75.563 46.394)"/><symbol id="p"><path d="M0 0v.716h.232a.841.841 0 0 0 .172-.01.187.187 0 0 0 .103-.071.221.221 0 0 0 .041-.14.234.234 0 0 0-.024-.11A.197.197 0 0 0 .39.28a.825.825 0 0 0-.15-.01H.145V0H0m.145.595V.392h.079c.057 0 .095.003.114.01.02.008.034.02.045.036a.095.095 0 0 1 .016.056.092.092 0 0 1-.023.064.1.1 0 0 1-.058.032.695.695 0 0 1-.104.005h-.07z"/></symbol><symbol id="q"><path d="M.137 0H0v.519h.127V.445a.224.224 0 0 0 .059.069.11.11 0 0 0 .06.016.174.174 0 0 0 .09-.026L.293.384A.12.12 0 0 1 .23.408.075.075 0 0 1 .18.391C.167.381.156.361.148.334A.832.832 0 0 1 .138.16V0z"/></symbol><use xlink:href="#p" transform="matrix(8.6281 0 0 -8.6281 31.534 54.645)"/><use xlink:href="#d" transform="matrix(8.6281 0 0 -8.6281 37.28 54.645)"/><use xlink:href="#g" transform="matrix(8.6281 0 0 -8.6281 39.367 54.746)"/><use xlink:href="#o" transform="matrix(8.6281 0 0 -8.6281 43.916 56.46)"/><use xlink:href="#i" transform="matrix(8.6281 0 0 -8.6281 48.928 54.746)"/><use xlink:href="#q" transform="matrix(8.6281 0 0 -8.6281 54.02 54.645)"/><path stroke-miterlimit="10" fill="none" stroke="#000" d="M173.64 130.5h16.897v86.734" stroke-width=".71901"/><path d="m190.537 221.009-2.516-5.033 2.516 1.258 2.517-1.258-2.517 5.033z"/><path stroke-miterlimit="10" fill="none" stroke="#000" d="m190.537 221.009-2.516-5.033 2.516 1.258 2.517-1.258-2.517 5.033zM87.36 130.5H70.463v86.734" stroke-width=".71901"/><path d="m70.463 221.009-2.517-5.033 2.517 1.258 2.516-1.258-2.516 5.033z"/><path stroke-miterlimit="10" fill="none" stroke="#000" d="m70.463 221.009-2.517-5.033 2.517 1.258 2.516-1.258-2.516 5.033z" stroke-width=".71901"/><path d="M56.802 211.388V130.14h9.347v81.248z" fill="#fff"/><symbol id="r"><path d="M.686.057a1.003 1.003 0 0 0-.13-.038A.714.714 0 0 0 .396 0a.403.403 0 0 0-.291.1A.369.369 0 0 0 0 .38c0 .112.035.203.106.272.07.07.17.104.295.104A.602.602 0 0 0 .682.692v-.17h-.02a1.756 1.756 0 0 1-.091.06.332.332 0 0 1-.147.039.264.264 0 0 1-.09-.015.21.21 0 0 1-.073-.045.207.207 0 0 1-.049-.075.284.284 0 0 1-.017-.104c0-.08.021-.142.064-.184C.3.155.364.134.448.134a.613.613 0 0 1 .047.002v.142H.35v.138h.336v-.36z"/></symbol><symbol id="s"><path d="M.55.015H.376v.06A.536.536 0 0 0 .285.02.226.226 0 0 0 .19 0c-.06 0-.107.017-.14.052C.016.087 0 .14 0 .207v.356h.177V.292c0-.028 0-.051.002-.07A.123.123 0 0 1 .192.177.056.056 0 0 1 .22.15.135.135 0 0 1 .272.142a.214.214 0 0 1 .103.033v.388h.176V.015z"/></symbol><symbol id="t"><path d="M.58.256H.178A.127.127 0 0 1 .227.158.22.22 0 0 1 .36.124a.338.338 0 0 1 .19.063h.02V.045A.586.586 0 0 0 .34 0a.382.382 0 0 0-.253.074A.261.261 0 0 0 0 .286C0 .376.028.448.083.5c.056.054.132.08.229.08C.4.58.468.557.512.512.559.467.58.402.58.318V.256M.405.36c0 .037-.01.065-.027.083C.36.461.334.47.298.47A.129.129 0 0 1 .213.444C.192.426.18.398.177.359h.228z"/></symbol><symbol id="u"><path d="M.513.189A.16.16 0 0 0 .437.052.367.367 0 0 0 .229 0 .595.595 0 0 0 0 .044v.144h.016l.03-.02A.423.423 0 0 1 .157.125.337.337 0 0 1 .233.117c.034 0 .06.004.077.011.016.008.024.02.024.035C.333.176.33.186.32.19A.185.185 0 0 1 .263.21a.736.736 0 0 1-.053.01.614.614 0 0 0-.06.012.216.216 0 0 0-.111.06.151.151 0 0 0-.037.104c0 .052.025.096.075.13.05.036.119.054.205.054a.532.532 0 0 0 .206-.04V.402H.473a.35.35 0 0 1-.19.06A.194.194 0 0 1 .21.45C.19.442.182.43.182.417c0-.014.005-.023.013-.03a.18.18 0 0 1 .062-.02L.315.354A.709.709 0 0 0 .377.343.195.195 0 0 0 .48.286.143.143 0 0 0 .513.189z"/></symbol><symbol id="v"><path d="M.936.548.766 0H.579L.467.37.357 0H.168L0 .548h.185L.278.17l.118.378H.55L.663.17l.092.378h.18z"/></symbol><symbol id="w"><path d="M.6.291A.286.286 0 0 0 .522.078.301.301 0 0 0 .301 0a.303.303 0 0 0-.222.078A.287.287 0 0 0 0 .29c0 .09.026.162.08.214A.303.303 0 0 0 .3.583C.396.583.47.556.522.504A.287.287 0 0 0 .601.291M.384.158c.012.014.02.03.026.05.006.02.008.047.008.082C.418.322.416.35.41.371a.142.142 0 0 1-.025.052.086.086 0 0 1-.037.029.14.14 0 0 1-.093.001.092.092 0 0 1-.038-.027.142.142 0 0 1-.026-.052A.316.316 0 0 1 .182.29C.182.26.185.234.19.212A.137.137 0 0 1 .215.159.093.093 0 0 1 .252.131a.133.133 0 0 1 .05-.008c.016 0 .03.002.045.007a.085.085 0 0 1 .037.028z"/></symbol><symbol id="x"><path d="M.397.38H.382a.548.548 0 0 1-.144.003.377.377 0 0 1-.062-.016V0H0v.548h.176v-.08a.361.361 0 0 0 .1.066.221.221 0 0 0 .121.014V.381z"/></symbol><symbol id="y"><path d="M.582 0H.377L.224.239.176.18V0H0v.76h.176V.306l.19.242h.202L.37.312.582 0z"/></symbol><symbol id="z"><path d="M0 0z"/></symbol><symbol id="A"><path d="M.426 0H0v.129h.12v.47H0v.128h.426V.598h-.12v-.47h.12V0z"/></symbol><symbol id="B"><path d="M.55 0H.375v.272a.634.634 0 0 1-.003.066.14.14 0 0 1-.012.049.058.058 0 0 1-.029.026.163.163 0 0 1-.101 0A.264.264 0 0 1 .176.39V0H0v.548h.176v-.06a.452.452 0 0 0 .09.056c.029.013.06.02.096.02C.422.563.467.545.5.511.534.477.55.426.55.357V0z"/></symbol><symbol id="C"><path d="M.572.483a.348.348 0 0 0-.02-.124.27.27 0 0 0-.055-.091A.238.238 0 0 0 .322.19a.269.269 0 0 0-.08.01.37.37 0 0 0-.066.029V0H0v.75h.176V.692a.43.43 0 0 0 .082.053c.029.013.061.02.098.02a.188.188 0 0 0 .16-.076.334.334 0 0 0 .056-.206M.392.479c0 .054-.01.093-.028.117C.346.62.317.632.277.632a.207.207 0 0 1-.102-.03V.328a.141.141 0 0 1 .038-.01.407.407 0 0 1 .04-.001c.046 0 .081.013.104.04C.38.384.39.425.39.48z"/></symbol><symbol id="D"><path d="M.413.016A.468.468 0 0 0 .275 0C.207 0 .155.014.122.042.09.069.072.117.072.184V.44H0v.12h.072v.156h.176V.559h.165V.44H.248V.197c0-.015.003-.028.008-.04A.056.056 0 0 1 .28.13.106.106 0 0 1 .331.12c.01 0 .021.003.036.006a.15.15 0 0 1 .03.011h.016v-.12z"/></symbol><use xlink:href="#r" transform="matrix(0 -7.9091 -7.9091 0 64.83 210.98)"/><use xlink:href="#s" transform="matrix(0 -7.9091 -7.9091 0 64.83 204.341)"/><use xlink:href="#t" transform="matrix(0 -7.9091 -7.9091 0 64.827 198.992)"/><use xlink:href="#u" transform="matrix(0 -7.9091 -7.9091 0 64.83 193.713)"/><use xlink:href="#u" transform="matrix(0 -7.9091 -7.9091 0 64.83 189.023)"/><use xlink:href="#v" transform="matrix(0 -7.9091 -7.9091 0 64.71 184.526)"/><use xlink:href="#w" transform="matrix(0 -7.9091 -7.9091 0 64.846 176.617)"/><use xlink:href="#x" transform="matrix(0 -7.9091 -7.9091 0 64.71 170.867)"/><use xlink:href="#y" transform="matrix(0 -7.9091 -7.9091 0 64.71 166.936)"/><use xlink:href="#z" transform="matrix(0 -7.9091 -7.9091 0 64.71 162.285)"/><use xlink:href="#A" transform="matrix(0 -7.9091 -7.9091 0 64.71 159.106)"/><use xlink:href="#B" transform="matrix(0 -7.9091 -7.9091 0 64.71 154.606)"/><use xlink:href="#C" transform="matrix(0 -7.9091 -7.9091 0 66.302 148.974)"/><use xlink:href="#s" transform="matrix(0 -7.9091 -7.9091 0 64.83 143.48)"/><use xlink:href="#D" transform="matrix(0 -7.9091 -7.9091 0 64.796 138.305)"/><use xlink:href="#u" transform="matrix(0 -7.9091 -7.9091 0 64.83 134.498)"/><path d="M93.83 108.93h73.34a6.455 6.455 0 0 1 3.595 1.09 6.455 6.455 0 0 1 2.383 2.904 6.454 6.454 0 0 1 .493 2.477v30.198a6.455 6.455 0 0 1-1.091 3.595 6.456 6.456 0 0 1-2.904 2.384 6.457 6.457 0 0 1-2.477.492H93.831a6.455 6.455 0 0 1-3.596-1.09 6.456 6.456 0 0 1-2.383-2.904 6.456 6.456 0 0 1-.492-2.477v-30.198a6.455 6.455 0 0 1 1.09-3.595 6.455 6.455 0 0 1 2.904-2.384 6.455 6.455 0 0 1 2.477-.492z" fill="#fff"/><path fill="none" stroke="#000" d="M93.83 108.93h73.34a6.455 6.455 0 0 1 3.595 1.09 6.455 6.455 0 0 1 2.383 2.904 6.454 6.454 0 0 1 .493 2.477v30.198a6.455 6.455 0 0 1-1.091 3.595 6.456 6.456 0 0 1-2.904 2.384 6.457 6.457 0 0 1-2.477.492H93.831a6.455 6.455 0 0 1-3.596-1.09 6.456 6.456 0 0 1-2.383-2.904 6.456 6.456 0 0 1-.492-2.477v-30.198a6.455 6.455 0 0 1 1.09-3.595 6.455 6.455 0 0 1 2.904-2.384 6.455 6.455 0 0 1 2.477-.492z" stroke-width=".71901"/><symbol id="E"><path d="M0 0v.716h.53V.595H.146V.436h.359v-.12h-.36V.12h.4V0H0z"/></symbol><symbol id="F"><path d="M.482.377.347.353a.098.098 0 0 1-.031.06.093.093 0 0 1-.063.021.103.103 0 0 1-.082-.036C.151.375.141.336.141.28c0-.061.01-.105.03-.13A.103.103 0 0 1 .256.112c.026 0 .048.007.064.022.017.015.029.04.035.076L.49.188a.24.24 0 0 0-.08-.14A.25.25 0 0 0 .249 0a.238.238 0 0 0-.182.072A.279.279 0 0 0 0 .27c0 .085.023.152.068.2A.24.24 0 0 0 .25.541a.248.248 0 0 0 .15-.041.224.224 0 0 0 .081-.124z"/></symbol><symbol id="G"><path d="M0 .278c0 .046.011.09.034.133a.232.232 0 0 0 .095.097.285.285 0 0 0 .138.034.258.258 0 0 0 .268-.27A.268.268 0 0 0 .46.077.256.256 0 0 0 .269 0a.303.303 0 0 0-.137.032.222.222 0 0 0-.098.094A.316.316 0 0 0 0 .278M.14.271C.14.22.154.181.178.153a.116.116 0 0 1 .09-.041c.036 0 .066.013.09.04.025.028.037.068.037.12 0 .05-.012.09-.037.117a.115.115 0 0 1-.09.041.116.116 0 0 1-.09-.04C.153.361.141.321.141.27z"/></symbol><symbol id="H"><path d="M.506.012H.38v.076A.208.208 0 0 0 .304.02.193.193 0 0 0 .217 0c-.06 0-.11.024-.154.072a.295.295 0 0 0-.063.2c0 .089.02.156.062.201A.202.202 0 0 0 .369.47v.258h.137V.012M.14.282c0-.055.008-.095.023-.12A.104.104 0 0 1 .256.108c.031 0 .058.014.08.04C.36.175.37.216.37.27c0 .06-.011.102-.033.128a.102.102 0 0 1-.082.04.104.104 0 0 1-.082-.04C.15.373.14.335.14.283z"/></symbol><use xlink:href="#E" transform="matrix(8.6281 0 0 -8.6281 113.5 133.736)"/><use xlink:href="#m" transform="matrix(8.6281 0 0 -8.6281 119.239 133.736)"/><use xlink:href="#F" transform="matrix(8.6281 0 0 -8.6281 124.258 133.837)"/><use xlink:href="#G" transform="matrix(8.6281 0 0 -8.6281 129.042 133.837)"/><use xlink:href="#H" transform="matrix(8.6281 0 0 -8.6281 134.323 133.837)"/><use xlink:href="#i" transform="matrix(8.6281 0 0 -8.6281 139.514 133.837)"/><use xlink:href="#q" transform="matrix(8.6281 0 0 -8.6281 144.606 133.736)"/><path stroke-miterlimit="10" fill="none" stroke="#000" d="M113.603 241.946h33.794m0 2.876h-33.794" stroke-width=".71901"/><path d="M153.868 221.814h73.339a6.459 6.459 0 0 1 3.595 1.09 6.454 6.454 0 0 1 2.383 2.905 6.452 6.452 0 0 1 .493 2.476v30.198a6.454 6.454 0 0 1-1.09 3.596 6.457 6.457 0 0 1-2.905 2.383 6.455 6.455 0 0 1-2.476.493h-73.34a6.458 6.458 0 0 1-3.594-1.091 6.456 6.456 0 0 1-2.384-2.904 6.455 6.455 0 0 1-.492-2.477v-30.198a6.456 6.456 0 0 1 1.09-3.595 6.456 6.456 0 0 1 2.904-2.383 6.454 6.454 0 0 1 2.477-.493z" fill="#fff"/><path fill="none" stroke="#000" d="M153.868 221.814h73.339a6.459 6.459 0 0 1 3.595 1.09 6.454 6.454 0 0 1 2.383 2.905 6.452 6.452 0 0 1 .493 2.476v30.198a6.454 6.454 0 0 1-1.09 3.596 6.457 6.457 0 0 1-2.905 2.383 6.455 6.455 0 0 1-2.476.493h-73.34a6.458 6.458 0 0 1-3.594-1.091 6.456 6.456 0 0 1-2.384-2.904 6.455 6.455 0 0 1-.492-2.477v-30.198a6.456 6.456 0 0 1 1.09-3.595 6.456 6.456 0 0 1 2.904-2.383 6.454 6.454 0 0 1 2.477-.493z" stroke-width=".71901"/><symbol id="I"><path d="m0 .246.14.013A.172.172 0 0 1 .193.155.157.157 0 0 1 .297.122c.046 0 .081.01.105.03.024.02.035.042.035.069a.064.064 0 0 1-.015.043.116.116 0 0 1-.051.03 1.779 1.779 0 0 1-.116.032.393.393 0 0 0-.163.071.186.186 0 0 0-.035.246c.02.032.05.056.089.073A.36.36 0 0 0 .287.74C.377.74.444.72.49.68A.208.208 0 0 0 .562.525L.417.518C.411.554.397.58.377.597S.327.62.286.62A.165.165 0 0 1 .187.595.052.052 0 0 1 .164.551c0-.017.007-.032.022-.044A.38.38 0 0 1 .318.46.685.685 0 0 0 .474.408.197.197 0 0 0 .582.22a.21.21 0 0 0-.13-.195A.409.409 0 0 0 .294 0a.31.31 0 0 0-.208.063A.274.274 0 0 0 0 .245z"/></symbol><symbol id="J"><path d="M.018.176.175.157C.177.14.183.127.193.12.206.11.226.105.254.105a.16.16 0 0 1 .081.016.066.066 0 0 1 .027.035.208.208 0 0 1 .007.063v.075A.186.186 0 0 0 .213.21C.143.21.09.24.048.3A.3.3 0 0 0 0 .473C0 .56.02.626.063.672A.203.203 0 0 0 .218.74.19.19 0 0 0 .377.656V.73h.129V.264A.464.464 0 0 0 .49.126a.17.17 0 0 0-.043-.07.188.188 0 0 0-.073-.041A.382.382 0 0 0 .26 0C.172 0 .11.015.073.045A.141.141 0 0 0 .018.16v.016M.141.48C.14.425.15.385.172.36A.1.1 0 0 1 .252.32a.11.11 0 0 1 .084.04C.36.386.371.425.371.476c0 .054-.011.094-.033.12a.106.106 0 0 1-.084.039.102.102 0 0 1-.082-.039C.152.572.141.533.141.48z"/></symbol><use xlink:href="#I" transform="matrix(8.6281 0 0 -8.6281 174.784 246.73)"/><use xlink:href="#j" transform="matrix(8.6281 0 0 -8.6281 180.357 246.72)"/><use xlink:href="#G" transform="matrix(8.6281 0 0 -8.6281 183.445 246.72)"/><use xlink:href="#q" transform="matrix(8.6281 0 0 -8.6281 188.94 246.62)"/><use xlink:href="#g" transform="matrix(8.6281 0 0 -8.6281 192.036 246.72)"/><use xlink:href="#J" transform="matrix(8.6281 0 0 -8.6281 196.88 248.436)"/><use xlink:href="#i" transform="matrix(8.6281 0 0 -8.6281 202.07 246.72)"/><path stroke-miterlimit="10" fill="none" stroke="#000" d="M216.781 67.946v20.492h-64.71v15.912" stroke-width=".71901"/><path d="m152.07 108.124-2.516-5.033 2.516 1.259 2.517-1.259-2.517 5.033z"/><path stroke-miterlimit="10" fill="none" stroke="#000" d="m152.07 108.124-2.516-5.033 2.516 1.259 2.517-1.259-2.517 5.033z" stroke-width=".71901"/><path d="M180.112 24.806h73.338a6.456 6.456 0 0 1 3.596 1.09 6.456 6.456 0 0 1 2.383 2.904 6.452 6.452 0 0 1 .492 2.477v30.198a6.455 6.455 0 0 1-1.09 3.595 6.458 6.458 0 0 1-2.904 2.384 6.456 6.456 0 0 1-2.477.492h-73.338a6.456 6.456 0 0 1-3.596-1.09 6.455 6.455 0 0 1-2.383-2.904 6.456 6.456 0 0 1-.492-2.477V31.277a6.456 6.456 0 0 1 1.09-3.595 6.455 6.455 0 0 1 2.904-2.384 6.455 6.455 0 0 1 2.477-.492z" fill="#fff"/><path fill="none" stroke="#000" d="M180.112 24.806h73.338a6.456 6.456 0 0 1 3.596 1.09 6.456 6.456 0 0 1 2.383 2.904 6.452 6.452 0 0 1 .492 2.477v30.198a6.455 6.455 0 0 1-1.09 3.595 6.458 6.458 0 0 1-2.904 2.384 6.456 6.456 0 0 1-2.477.492h-73.338a6.456 6.456 0 0 1-3.596-1.09 6.455 6.455 0 0 1-2.383-2.904 6.456 6.456 0 0 1-.492-2.477V31.277a6.456 6.456 0 0 1 1.09-3.595 6.455 6.455 0 0 1 2.904-2.384 6.455 6.455 0 0 1 2.477-.492z" stroke-width=".71901"/><symbol id="K"><path d="M.212 0v.595H0v.12h.569v-.12H.357V0H.212z"/></symbol><symbol id="L"><path d="M.17 0 0 .716h.148L.256.224l.13.492H.56l.125-.5.11.5h.145L.766 0H.612L.47.535.328 0H.17z"/></symbol><use xlink:href="#K" transform="matrix(8.6281 0 0 -8.6281 191.599 49.612)"/><use xlink:href="#g" transform="matrix(8.6281 0 0 -8.6281 196.351 49.713)"/><use xlink:href="#q" transform="matrix(8.6281 0 0 -8.6281 201.41 49.612)"/><use xlink:href="#J" transform="matrix(8.6281 0 0 -8.6281 204.55 51.427)"/><use xlink:href="#i" transform="matrix(8.6281 0 0 -8.6281 209.743 49.713)"/><use xlink:href="#j" transform="matrix(8.6281 0 0 -8.6281 214.397 49.713)"/><use xlink:href="#k" transform="matrix(8.6281 0 0 -8.6281 217.14 49.612)"/><use xlink:href="#L" transform="matrix(8.6281 0 0 -8.6281 219.567 49.612)"/><use xlink:href="#G" transform="matrix(8.6281 0 0 -8.6281 227.872 49.713)"/><use xlink:href="#q" transform="matrix(8.6281 0 0 -8.6281 233.367 49.612)"/><use xlink:href="#H" transform="matrix(8.6281 0 0 -8.6281 236.509 49.713)"/><path stroke-miterlimit="10" fill="none" stroke="#000" d="M70.463 264.955v47.454h12.316" stroke-width=".71901"/><path d="m86.554 312.41-5.033 2.516 1.258-2.517-1.258-2.516 5.033 2.516z"/><path stroke-miterlimit="10" fill="none" stroke="#000" d="m86.554 312.41-5.033 2.516 1.258-2.517-1.258-2.516 5.033 2.516z" stroke-width=".71901"/><path d="M33.793 221.814h73.34a6.46 6.46 0 0 1 3.594 1.09 6.455 6.455 0 0 1 2.384 2.905 6.455 6.455 0 0 1 .492 2.476v30.198a6.456 6.456 0 0 1-1.09 3.596 6.457 6.457 0 0 1-2.904 2.383 6.456 6.456 0 0 1-2.477.493H33.793a6.458 6.458 0 0 1-3.595-1.091 6.455 6.455 0 0 1-2.383-2.904 6.455 6.455 0 0 1-.493-2.477v-30.198a6.456 6.456 0 0 1 1.09-3.595 6.456 6.456 0 0 1 2.905-2.383 6.454 6.454 0 0 1 2.476-.493z" fill="#fff"/><path fill="none" stroke="#000" d="M33.793 221.814h73.34a6.46 6.46 0 0 1 3.594 1.09 6.455 6.455 0 0 1 2.384 2.905 6.455 6.455 0 0 1 .492 2.476v30.198a6.456 6.456 0 0 1-1.09 3.596 6.457 6.457 0 0 1-2.904 2.383 6.456 6.456 0 0 1-2.477.493H33.793a6.458 6.458 0 0 1-3.595-1.091 6.455 6.455 0 0 1-2.383-2.904 6.455 6.455 0 0 1-.493-2.477v-30.198a6.456 6.456 0 0 1 1.09-3.595 6.456 6.456 0 0 1 2.905-2.383 6.454 6.454 0 0 1 2.476-.493z" stroke-width=".71901"/><symbol id="M"><path d="M0 0v.71h.145V.12h.359V0H0z"/></symbol><symbol id="N"><path d="m.483.275.14-.044A.315.315 0 0 0 .517.057.306.306 0 0 0 .326 0a.308.308 0 0 0-.234.097A.374.374 0 0 0 0 .364C0 .483.03.575.092.64c.062.066.143.1.243.1A.298.298 0 0 0 .548.662.282.282 0 0 0 .622.53L.479.497a.151.151 0 0 1-.054.087.15.15 0 0 1-.097.033.164.164 0 0 1-.13-.057C.165.52.148.46.148.375.149.284.166.22.199.18A.159.159 0 0 1 .325.124c.038 0 .071.012.099.036a.213.213 0 0 1 .06.115z"/></symbol><symbol id="O"><path d="M0 .519h.126V.448c.046.055.1.082.162.082A.174.174 0 0 0 .375.51a.158.158 0 0 0 .06-.062.24.24 0 0 0 .073.062.18.18 0 0 0 .085.02C.63.53.663.522.689.507A.14.14 0 0 0 .75.439.295.295 0 0 0 .763.332V0H.625v.296c0 .052-.004.085-.014.1C.6.416.58.426.553.426A.094.094 0 0 1 .499.407.098.098 0 0 1 .462.356.368.368 0 0 1 .45.249V0H.313v.284c0 .05-.002.083-.007.098a.062.062 0 0 1-.023.033.07.07 0 0 1-.041.01A.095.095 0 0 1 .148.36a.375.375 0 0 1-.01-.107V0H0v.519z"/></symbol><symbol id="P"><path d="M0 .589v.127h.137V.589H0M0 0v.519h.137V0H0z"/></symbol><symbol id="Q"><path d="m0 .16.138.02A.102.102 0 0 1 .173.12.121.121 0 0 1 .25.1C.284.1.31.105.329.118.34.128.347.14.347.155c0 .01-.004.02-.01.026A.11.11 0 0 1 .29.2a.74.74 0 0 0-.21.067.134.134 0 0 0-.062.117c0 .045.018.082.053.113.036.03.09.046.165.046A.288.288 0 0 0 .396.507a.177.177 0 0 0 .07-.102L.338.38a.08.08 0 0 1-.031.046.114.114 0 0 1-.066.016.15.15 0 0 1-.078-.015A.033.033 0 0 1 .146.4C.146.39.151.382.16.375A.514.514 0 0 1 .288.337.382.382 0 0 0 .441.276.127.127 0 0 0 .484.174.157.157 0 0 0 .424.05C.386.017.327 0 .25 0A.29.29 0 0 0 .08.043.198.198 0 0 0 0 .16z"/></symbol><use xlink:href="#M" transform="matrix(7.9091 0 0 -7.9091 35.916 241.587)"/><use xlink:href="#i" transform="matrix(7.9091 0 0 -7.9091 40.394 241.68)"/><use xlink:href="#j" transform="matrix(7.9091 0 0 -7.9091 44.66 241.68)"/><use xlink:href="#j" transform="matrix(7.9091 0 0 -7.9091 47.293 241.68)"/><use xlink:href="#i" transform="matrix(7.9091 0 0 -7.9091 50.058 241.68)"/><use xlink:href="#q" transform="matrix(7.9091 0 0 -7.9091 54.726 241.587)"/><use xlink:href="#k" transform="matrix(7.9091 0 0 -7.9091 57.282 241.587)"/><use xlink:href="#N" transform="matrix(7.9091 0 0 -7.9091 59.855 241.683)"/><use xlink:href="#G" transform="matrix(7.9091 0 0 -7.9091 65.507 241.68)"/><use xlink:href="#O" transform="matrix(7.9091 0 0 -7.9091 70.51 241.587)"/><use xlink:href="#e" transform="matrix(7.9091 0 0 -7.9091 77.591 243.147)"/><use xlink:href="#g" transform="matrix(7.9091 0 0 -7.9091 82.169 241.68)"/><use xlink:href="#q" transform="matrix(7.9091 0 0 -7.9091 86.805 241.587)"/><use xlink:href="#P" transform="matrix(7.9091 0 0 -7.9091 89.928 241.587)"/><use xlink:href="#Q" transform="matrix(7.9091 0 0 -7.9091 91.745 241.68)"/><use xlink:href="#G" transform="matrix(7.9091 0 0 -7.9091 96.274 241.68)"/><use xlink:href="#m" transform="matrix(7.9091 0 0 -7.9091 101.35 241.587)"/><symbol id="R"><path d="M.247 0H.153a.95.95 0 0 0-.114.234.74.74 0 0 0 .01.502C.075.81.111.878.154.939h.094A1.496 1.496 0 0 1 .156.687a.937.937 0 0 1-.01-.384A1.091 1.091 0 0 1 .247 0z"/></symbol><symbol id="S"><path d="M0 .716h.286A.794.794 0 0 0 .413.708.182.182 0 0 0 .543.62.16.16 0 0 0 .563.536.166.166 0 0 0 .537.443.166.166 0 0 0 .464.38.172.172 0 0 0 .6.207.212.212 0 0 0 .515.04.205.205 0 0 0 .418.005 2.404 2.404 0 0 0 .244 0H0v.716m.145-.12V.432h.094c.057 0 .092.001.105.003a.095.095 0 0 1 .058.025.076.076 0 0 1 .022.056c0 .022-.006.04-.019.054a.081.081 0 0 1-.054.025 1.693 1.693 0 0 1-.123.003H.145m0-.285V.121h.133c.052 0 .085.001.1.004A.089.089 0 0 1 .43.153C.443.17.45.19.45.214.45.236.445.254.435.27a.088.088 0 0 1-.046.033.488.488 0 0 1-.128.01H.145z"/></symbol><symbol id="T"><path d="M0 .519h.076v.039C.076.6.081.634.09.655A.11.11 0 0 0 .14.708c.025.013.057.02.095.02C.275.728.313.722.35.71L.332.615a.271.271 0 0 1-.063.008C.249.623.235.618.226.608.218.6.213.582.213.555V.52h.103V.41H.213V0H.076v.41H0V.52z"/></symbol><symbol id="U"><path d="M.001 0A.986.986 0 0 1 .11.355a.9.9 0 0 1-.018.332A1.46 1.46 0 0 1 0 .938h.093A.89.89 0 0 0 .208.716.72.72 0 0 0 .216.258.92.92 0 0 0 .096 0H0z"/></symbol><use xlink:href="#R" transform="matrix(7.9091 0 0 -7.9091 39.678 253.317)"/><use xlink:href="#S" transform="matrix(7.9091 0 0 -7.9091 42.478 251.653)"/><use xlink:href="#q" transform="matrix(7.9091 0 0 -7.9091 48.13 251.653)"/><use xlink:href="#g" transform="matrix(7.9091 0 0 -7.9091 50.967 251.746)"/><use xlink:href="#P" transform="matrix(7.9091 0 0 -7.9091 55.65 251.653)"/><use xlink:href="#m" transform="matrix(7.9091 0 0 -7.9091 57.841 251.653)"/><use xlink:href="#k" transform="matrix(7.9091 0 0 -7.9091 62.114 251.653)"/><use xlink:href="#G" transform="matrix(7.9091 0 0 -7.9091 64.63 251.746)"/><use xlink:href="#T" transform="matrix(7.9091 0 0 -7.9091 69.238 251.653)"/><use xlink:href="#k" transform="matrix(7.9091 0 0 -7.9091 71.779 251.653)"/><use xlink:href="#N" transform="matrix(7.9091 0 0 -7.9091 74.352 251.75)"/><use xlink:href="#P" transform="matrix(7.9091 0 0 -7.9091 80.256 251.653)"/><use xlink:href="#q" transform="matrix(7.9091 0 0 -7.9091 82.408 251.653)"/><use xlink:href="#F" transform="matrix(7.9091 0 0 -7.9091 85.292 251.746)"/><use xlink:href="#n" transform="matrix(7.9091 0 0 -7.9091 89.905 251.746)"/><use xlink:href="#P" transform="matrix(7.9091 0 0 -7.9091 94.76 251.653)"/><use xlink:href="#j" transform="matrix(7.9091 0 0 -7.9091 96.512 251.746)"/><use xlink:href="#U" transform="matrix(7.9091 0 0 -7.9091 99.284 253.317)"/><symbol id="V"><path d="M.642.586H.415V0H.227v.586H0v.141h.642v-.14z"/></symbol><symbol id="W"><path d="M.373.158v.114a1.67 1.67 0 0 1-.14-.02.087.087 0 0 1-.04-.024.06.06 0 0 1-.014-.042c0-.011 0-.02.003-.028a.042.042 0 0 1 .014-.02.074.074 0 0 1 .027-.015.197.197 0 0 1 .049-.004c.018 0 .035.003.053.01a.166.166 0 0 1 .048.029m0-.085A1.84 1.84 0 0 0 .338.047.24.24 0 0 0 .245.006.297.297 0 0 0 .184 0a.186.186 0 0 0-.131.048A.16.16 0 0 0 0 .172c0 .04.009.073.027.098a.18.18 0 0 0 .076.06.43.43 0 0 0 .121.031c.048.007.098.011.15.014v.003c0 .03-.012.051-.037.062a.265.265 0 0 1-.11.018.308.308 0 0 1-.092-.016A1.187 1.187 0 0 1 .064.42H.048V.55A1.008 1.008 0 0 0 .264.58c.1 0 .172-.016.216-.047C.525.502.547.453.547.388V.015H.373v.058z"/></symbol><symbol id="X"><path d="M.572.27A.338.338 0 0 0 .55.14.194.194 0 0 0 .49.057.249.249 0 0 0 .393.014.53.53 0 0 0 .267 0 .925.925 0 0 0 .06.023v.138H.08A.529.529 0 0 1 .242.127C.274.127.3.13.32.137.34.141.357.15.368.161c.01.01.017.023.022.04A.22.22 0 0 1 .396.26v.01A.233.233 0 0 0 .24.215c-.077 0-.136.023-.178.07C.021.33 0 .4 0 .494 0 .54.006.58.019.613a.26.26 0 0 0 .054.086C.094.72.12.738.152.75a.282.282 0 0 0 .244-.02l.006.024h.17V.27M.396.38v.248A.228.228 0 0 1 .32.642C.275.642.24.628.217.602A.163.163 0 0 1 .18.49c0-.053.01-.09.03-.11C.23.36.26.348.297.348.316.35.333.352.35.357A.196.196 0 0 1 .396.38z"/></symbol><symbol id="Y"><path d="M1.064.727.868 0H.661L.53.474.402 0H.196L0 .727h.196l.112-.5.133.5h.187l.128-.5.117.5h.191z"/></symbol><symbol id="Z"><path d="M.572.015H.396v.057A.385.385 0 0 0 .312.018.223.223 0 0 0 .22 0a.193.193 0 0 0-.16.077.33.33 0 0 0-.06.208C0 .332.007.373.02.41A.286.286 0 0 0 .076.5a.226.226 0 0 0 .08.057c.032.014.063.02.095.02.033 0 .06-.003.08-.01A.504.504 0 0 0 .397.542v.233h.176v-.76M.396.167v.269A.23.23 0 0 1 .32.45C.275.45.24.435.217.406A.186.186 0 0 1 .18.287C.181.233.191.194.21.17.228.146.257.134.299.134a.185.185 0 0 1 .098.033z"/></symbol><use xlink:href="#V" transform="matrix(0 7.9091 7.9091 0 196.29 136.691)"/><use xlink:href="#W" transform="matrix(0 7.9091 7.9091 0 196.173 142.26)"/><use xlink:href="#x" transform="matrix(0 7.9091 7.9091 0 196.29 147.867)"/><use xlink:href="#X" transform="matrix(0 7.9091 7.9091 0 194.656 151.489)"/><use xlink:href="#t" transform="matrix(0 7.9091 7.9091 0 196.173 157.01)"/><use xlink:href="#D" transform="matrix(0 7.9091 7.9091 0 196.204 162.087)"/><use xlink:href="#z" transform="matrix(0 7.9091 7.9091 0 196.29 165.528)"/><use xlink:href="#Y" transform="matrix(0 7.9091 7.9091 0 196.29 168.487)"/><use xlink:href="#w" transform="matrix(0 7.9091 7.9091 0 196.154 177.494)"/><use xlink:href="#x" transform="matrix(0 7.9091 7.9091 0 196.29 183.244)"/><use xlink:href="#Z" transform="matrix(0 7.9091 7.9091 0 196.17 186.866)"/><path stroke-miterlimit="10" fill="none" stroke="#000" d="M130.5 333.98v14.38-5.753 9.8" stroke-width=".71901"/><path d="m130.5 356.182-2.517-5.033 2.517 1.259 2.517-1.259-2.517 5.033z"/><path stroke-miterlimit="10" fill="none" stroke="#000" d="m130.5 356.182-2.517-5.033 2.517 1.259 2.517-1.259-2.517 5.033z" stroke-width=".71901"/><path d="M93.83 290.839h73.34a6.46 6.46 0 0 1 3.595 1.09 6.455 6.455 0 0 1 2.383 2.905 6.454 6.454 0 0 1 .493 2.476v30.198a6.455 6.455 0 0 1-1.091 3.595 6.456 6.456 0 0 1-2.904 2.384 6.459 6.459 0 0 1-2.477.492H93.831a6.456 6.456 0 0 1-3.596-1.09 6.455 6.455 0 0 1-2.383-2.904 6.457 6.457 0 0 1-.492-2.477V297.31a6.456 6.456 0 0 1 1.09-3.595 6.455 6.455 0 0 1 2.904-2.384 6.454 6.454 0 0 1 2.477-.492z" fill="#fff"/><path fill="none" stroke="#000" d="M93.83 290.839h73.34a6.46 6.46 0 0 1 3.595 1.09 6.455 6.455 0 0 1 2.383 2.905 6.454 6.454 0 0 1 .493 2.476v30.198a6.455 6.455 0 0 1-1.091 3.595 6.456 6.456 0 0 1-2.904 2.384 6.459 6.459 0 0 1-2.477.492H93.831a6.456 6.456 0 0 1-3.596-1.09 6.455 6.455 0 0 1-2.383-2.904 6.457 6.457 0 0 1-.492-2.477V297.31a6.456 6.456 0 0 1 1.09-3.595 6.455 6.455 0 0 1 2.904-2.384 6.454 6.454 0 0 1 2.477-.492z" stroke-width=".71901"/><symbol id="aa"><path d="M0 0v.716h.216l.13-.488.129.488H.69V0H.557v.563L.415 0h-.14l-.14.563V0H0z"/></symbol><use xlink:href="#aa" transform="matrix(7.9091 0 0 -7.9091 101.906 315.645)"/><use xlink:href="#P" transform="matrix(7.9091 0 0 -7.9091 108.502 315.645)"/><use xlink:href="#F" transform="matrix(7.9091 0 0 -7.9091 110.462 315.737)"/><use xlink:href="#q" transform="matrix(7.9091 0 0 -7.9091 115.052 315.645)"/><use xlink:href="#G" transform="matrix(7.9091 0 0 -7.9091 117.924 315.737)"/><use xlink:href="#F" transform="matrix(7.9091 0 0 -7.9091 122.768 315.737)"/><use xlink:href="#G" transform="matrix(7.9091 0 0 -7.9091 127.154 315.737)"/><use xlink:href="#m" transform="matrix(7.9091 0 0 -7.9091 132.23 315.645)"/><use xlink:href="#j" transform="matrix(7.9091 0 0 -7.9091 136.622 315.737)"/><use xlink:href="#q" transform="matrix(7.9091 0 0 -7.9091 139.657 315.645)"/><use xlink:href="#G" transform="matrix(7.9091 0 0 -7.9091 142.53 315.737)"/><use xlink:href="#d" transform="matrix(7.9091 0 0 -7.9091 147.613 315.645)"/><use xlink:href="#d" transform="matrix(7.9091 0 0 -7.9091 149.812 315.645)"/><use xlink:href="#i" transform="matrix(7.9091 0 0 -7.9091 151.694 315.737)"/><use xlink:href="#q" transform="matrix(7.9091 0 0 -7.9091 156.361 315.645)"/><path d="M93.83 356.988h73.34a6.458 6.458 0 0 1 3.595 1.09 6.456 6.456 0 0 1 2.383 2.904 6.454 6.454 0 0 1 .493 2.477v30.198a6.455 6.455 0 0 1-1.091 3.595 6.457 6.457 0 0 1-2.904 2.384 6.455 6.455 0 0 1-2.477.492H93.831a6.455 6.455 0 0 1-3.596-1.09 6.456 6.456 0 0 1-2.383-2.905 6.456 6.456 0 0 1-.492-2.476v-30.198a6.456 6.456 0 0 1 1.09-3.595 6.454 6.454 0 0 1 2.904-2.384 6.456 6.456 0 0 1 2.477-.492z" fill="#fff"/><path fill="none" stroke="#000" d="M93.83 356.988h73.34a6.458 6.458 0 0 1 3.595 1.09 6.456 6.456 0 0 1 2.383 2.904 6.454 6.454 0 0 1 .493 2.477v30.198a6.455 6.455 0 0 1-1.091 3.595 6.457 6.457 0 0 1-2.904 2.384 6.455 6.455 0 0 1-2.477.492H93.831a6.455 6.455 0 0 1-3.596-1.09 6.456 6.456 0 0 1-2.383-2.905 6.456 6.456 0 0 1-.492-2.476v-30.198a6.456 6.456 0 0 1 1.09-3.595 6.454 6.454 0 0 1 2.904-2.384 6.456 6.456 0 0 1 2.477-.492z" stroke-width=".71901"/><symbol id="ab"><path d="M0 .716h.264C.324.716.37.71.4.702A.24.24 0 0 0 .508.636.312.312 0 0 0 .577.52.526.526 0 0 0 .6.351.47.47 0 0 0 .578.2.316.316 0 0 0 .501.072.254.254 0 0 0 .4.015.437.437 0 0 0 .272 0H0v.716M.145.595V.12h.107c.04 0 .07.002.088.006a.132.132 0 0 1 .058.03.15.15 0 0 1 .038.07.47.47 0 0 1 .015.13.428.428 0 0 1-.015.128.164.164 0 0 1-.041.07.138.138 0 0 1-.067.033.655.655 0 0 1-.119.007H.145z"/></symbol><symbol id="ac"><path d="M0 .366C0 .439.01.5.033.549a.34.34 0 0 0 .066.098c.028.03.06.05.093.065A.393.393 0 0 0 .346.74C.452.74.536.708.6.642A.376.376 0 0 0 .694.37.376.376 0 0 0 .6.098.334.334 0 0 0 .348 0a.337.337 0 0 0-.254.097A.37.37 0 0 0 0 .366M.149.37C.149.29.168.228.205.186A.183.183 0 0 1 .348.124c.057 0 .104.02.141.062.037.041.056.104.056.187C.545.455.527.516.49.556a.182.182 0 0 1-.143.06.183.183 0 0 1-.144-.06C.167.513.149.452.149.37z"/></symbol><use xlink:href="#M" transform="matrix(7.9091 0 0 -7.9091 108.559 381.793)"/><use xlink:href="#N" transform="matrix(7.9091 0 0 -7.9091 113.16 381.89)"/><use xlink:href="#ab" transform="matrix(7.9091 0 0 -7.9091 119.067 381.793)"/><use xlink:href="#k" transform="matrix(7.9091 0 0 -7.9091 124.206 381.793)"/><use xlink:href="#ac" transform="matrix(7.9091 0 0 -7.9091 126.748 381.89)"/><use xlink:href="#n" transform="matrix(7.9091 0 0 -7.9091 133.102 381.886)"/><use xlink:href="#j" transform="matrix(7.9091 0 0 -7.9091 137.51 381.886)"/><use xlink:href="#e" transform="matrix(7.9091 0 0 -7.9091 140.56 383.354)"/><use xlink:href="#n" transform="matrix(7.9091 0 0 -7.9091 145.4 381.886)"/><use xlink:href="#j" transform="matrix(7.9091 0 0 -7.9091 149.808 381.886)"/><symbol id="ad"><path d="M0 0v.716h.137v-.38l.16.183h.17L.29.329.48 0H.331l-.13.233L.136.166V0H0z"/></symbol><symbol id="ae"><path d="M0 0v.716h.145V.434h.283v.282h.144V0H.428v.313H.145V0H0z"/></symbol><symbol id="af"><path d="M.358.275v.121h.311V.111A.48.48 0 0 0 .363 0a.393.393 0 0 0-.196.046.301.301 0 0 0-.125.135.437.437 0 0 0-.042.19c0 .075.016.141.047.2a.316.316 0 0 0 .137.133.37.37 0 0 0 .171.035.34.34 0 0 0 .208-.056A.251.251 0 0 0 .66.53L.517.503a.15.15 0 0 1-.058.083.17.17 0 0 1-.104.03.197.197 0 0 1-.15-.06C.167.517.149.458.149.379.149.293.168.23.206.187A.19.19 0 0 1 .354.124c.03 0 .06.005.09.017.031.012.058.027.08.044v.09H.357z"/></symbol><use xlink:href="#S" transform="matrix(12.22314 0 0 -12.22314 30.532 12.223)"/><use xlink:href="#d" transform="matrix(12.22314 0 0 -12.22314 39.34 12.223)"/><use xlink:href="#G" transform="matrix(12.22314 0 0 -12.22314 42.35 12.366)"/><use xlink:href="#F" transform="matrix(12.22314 0 0 -12.22314 49.835 12.366)"/><use xlink:href="#ad" transform="matrix(12.22314 0 0 -12.22314 56.942 12.223)"/><use xlink:href="#k" transform="matrix(12.22314 0 0 -12.22314 62.92 12.223)"/><use xlink:href="#ab" transform="matrix(12.22314 0 0 -12.22314 67.202 12.223)"/><use xlink:href="#P" transform="matrix(12.22314 0 0 -12.22314 76.02 12.223)"/><use xlink:href="#g" transform="matrix(12.22314 0 0 -12.22314 78.977 12.366)"/><use xlink:href="#J" transform="matrix(12.22314 0 0 -12.22314 85.839 14.795)"/><use xlink:href="#q" transform="matrix(12.22314 0 0 -12.22314 93.612 12.223)"/><use xlink:href="#g" transform="matrix(12.22314 0 0 -12.22314 97.996 12.366)"/><use xlink:href="#O" transform="matrix(12.22314 0 0 -12.22314 105.109 12.223)"/><use xlink:href="#k" transform="matrix(12.22314 0 0 -12.22314 115.223 12.223)"/><use xlink:href="#T" transform="matrix(12.22314 0 0 -12.22314 118.764 12.223)"/><use xlink:href="#G" transform="matrix(12.22314 0 0 -12.22314 123.18 12.366)"/><use xlink:href="#q" transform="matrix(12.22314 0 0 -12.22314 130.965 12.223)"/><use xlink:href="#k" transform="matrix(12.22314 0 0 -12.22314 134.915 12.223)"/><use xlink:href="#ae" transform="matrix(12.22314 0 0 -12.22314 139.208 12.223)"/><use xlink:href="#g" transform="matrix(12.22314 0 0 -12.22314 147.573 12.366)"/><use xlink:href="#m" transform="matrix(12.22314 0 0 -12.22314 154.8 12.223)"/><use xlink:href="#J" transform="matrix(12.22314 0 0 -12.22314 161.903 14.795)"/><use xlink:href="#O" transform="matrix(12.22314 0 0 -12.22314 169.622 12.223)"/><use xlink:href="#g" transform="matrix(12.22314 0 0 -12.22314 180.172 12.366)"/><use xlink:href="#m" transform="matrix(12.22314 0 0 -12.22314 187.398 12.223)"/><use xlink:href="#k" transform="matrix(12.22314 0 0 -12.22314 194.001 12.223)"/><use xlink:href="#af" transform="matrix(12.22314 0 0 -12.22314 197.984 12.372)"/><use xlink:href="#g" transform="matrix(12.22314 0 0 -12.22314 207.345 12.366)"/><use xlink:href="#O" transform="matrix(12.22314 0 0 -12.22314 214.457 12.223)"/><use xlink:href="#i" transform="matrix(12.22314 0 0 -12.22314 224.96 12.366)"/></g></svg>